<svg version="1.1" xmlns="http://www.w3.org/2000/svg" viewBox="0 0 633.4585847265262 374.1666666666663" width="633.4585847265262" height="374.1666666666663">
  <!-- svg-source:excalidraw -->
  
  <defs>
    <style class="style-fonts">
      @font-face {
        font-family: "Virgil";
        src: url("https://excalidraw.com/Virgil.woff2");
      }
      @font-face {
        font-family: "Cascadia";
        src: url("https://excalidraw.com/Cascadia.woff2");
      }
      @font-face {
        font-family: "Assistant";
        src: url("https://excalidraw.com/Assistant-Regular.woff2");
      }
    </style>
    
  </defs>
  <g stroke-linecap="round"><g stroke-opacity="0.7" fill-opacity="0.7" transform="translate(10.904805292931997 38.33333333333326) rotate(0 15.83333333333394 25.833333333333258)"><path d="M-0.75 -0.71 C4.72 7.95, 26.61 43.58, 32 52.49 M1.06 1.54 C6.47 9.81, 26.28 42.57, 31.23 50.8" stroke="#1e1e1e" stroke-width="4" fill="none"></path></g></g><mask></mask><g stroke-linecap="round"><g stroke-opacity="0.7" fill-opacity="0.7" transform="translate(19.24743319546178 91.66666666666652) rotate(0 22.495352715402987 25.571560324196753)"><path d="M-2.25 1 C-2.79 9.37, -12.3 41.65, -3.81 49.84 C4.69 58.04, 40.03 49.79, 48.7 50.16 M-0.63 0.48 C-1.42 8.56, -13.13 39.79, -5 48.2 C3.13 56.62, 39.23 50.67, 48.13 50.97" stroke="#1e1e1e" stroke-width="4" fill="none"></path></g><g stroke-opacity="0.7" fill-opacity="0.7" transform="translate(19.24743319546178 91.66666666666652) rotate(0 22.495352715402987 25.571560324196753)"><path d="M25.21 60.96 C34.85 56.92, 42.66 54.87, 48.13 50.97 M25.21 60.96 C30.43 58.26, 35.77 56.23, 48.13 50.97" stroke="#1e1e1e" stroke-width="4" fill="none"></path></g><g stroke-opacity="0.7" fill-opacity="0.7" transform="translate(19.24743319546178 91.66666666666652) rotate(0 22.495352715402987 25.571560324196753)"><path d="M24.15 43.89 C34.1 45.78, 42.28 49.64, 48.13 50.97 M24.15 43.89 C29.59 44.91, 35.16 46.61, 48.13 50.97" stroke="#1e1e1e" stroke-width="4" fill="none"></path></g></g><mask></mask><g stroke-opacity="0.7" fill-opacity="0.7" stroke-linecap="round" transform="translate(77.57147195959988 114.99999999999977) rotate(0 86.66666666666606 27.5)"><path d="M13.75 0 C60.39 -0.02, 107.04 1.96, 159.58 0 M13.75 0 C58.84 0.83, 104.48 0.52, 159.58 0 M159.58 0 C169.4 0.84, 175.19 3.89, 173.33 13.75 M159.58 0 C170.59 -1.43, 173.7 4.07, 173.33 13.75 M173.33 13.75 C173.82 21.9, 172.15 27.69, 173.33 41.25 M173.33 13.75 C173.6 23.67, 172.81 32.95, 173.33 41.25 M173.33 41.25 C174.25 51.24, 168.97 55.78, 159.58 55 M173.33 41.25 C172.96 50.94, 168.66 55.82, 159.58 55 M159.58 55 C111.69 56.78, 67.75 54.18, 13.75 55 M159.58 55 C121.45 56.53, 85.06 55.82, 13.75 55 M13.75 55 C2.61 55.29, 0.24 51.05, 0 41.25 M13.75 55 C4.33 56.64, -0.74 50.6, 0 41.25 M0 41.25 C-1.01 35.66, -0.9 29.08, 0 13.75 M0 41.25 C0.16 34.4, -0.16 26.54, 0 13.75 M0 13.75 C-1.65 6.12, 3.21 1.99, 13.75 0 M0 13.75 C1.83 3.45, 6.79 -1.37, 13.75 0" stroke="#1e1e1e" stroke-width="4" fill="none"></path></g><g stroke-opacity="0.7" fill-opacity="0.7" transform="translate(137.6881279451154 119.99999999999977) rotate(0 26.550010681152344 22.5)"><text x="26.550010681152344" y="0" font-family="Virgil, Segoe UI Emoji" font-size="36px" fill="#1e1e1e" text-anchor="middle" style="white-space: pre;" direction="ltr" dominant-baseline="text-before-edge">src</text></g><g stroke-linecap="round"><g stroke-opacity="0.7" fill-opacity="0.7" transform="translate(12.571471959599876 138.33333333333326) rotate(0 31.66666666666606 48.33333333333326)"><path d="M0.1 0.04 C0.98 15.11, -6.46 73.75, 4.11 89.93 C14.69 106.11, 53.77 95.99, 63.55 97.1 M-1.3 -0.98 C-0.41 14.32, -7.12 75.44, 3.58 91.43 C14.27 107.43, 53.03 93.95, 62.89 94.99" stroke="#1e1e1e" stroke-width="4" fill="none"></path></g><g stroke-opacity="0.7" fill-opacity="0.7" transform="translate(12.571471959599876 138.33333333333326) rotate(0 31.66666666666606 48.33333333333326)"><path d="M40.57 106.25 C45.24 105.23, 49.62 101.99, 62.89 94.99 M40.57 106.25 C47.59 101.91, 56.6 99.11, 62.89 94.99" stroke="#1e1e1e" stroke-width="4" fill="none"></path></g><g stroke-opacity="0.7" fill-opacity="0.7" transform="translate(12.571471959599876 138.33333333333326) rotate(0 31.66666666666606 48.33333333333326)"><path d="M38.56 89.27 C43.57 91.72, 48.36 91.94, 62.89 94.99 M38.56 89.27 C46.17 90.64, 55.86 93.55, 62.89 94.99" stroke="#1e1e1e" stroke-width="4" fill="none"></path></g></g><mask></mask><g stroke-opacity="0.7" fill-opacity="0.7" stroke-linecap="round" transform="translate(80.904805292932 204.99999999999977) rotate(0 90.83333333333394 27.5)"><path d="M13.75 0 C68.43 0.92, 118.86 1.84, 167.92 0 M13.75 0 C65.74 1.64, 118.24 0.73, 167.92 0 M167.92 0 C177.21 -0.18, 182.75 4.85, 181.67 13.75 M167.92 0 C177.53 0.91, 180.82 3.47, 181.67 13.75 M181.67 13.75 C179.92 22.77, 181.98 32.25, 181.67 41.25 M181.67 13.75 C181.46 22.56, 180.92 29.52, 181.67 41.25 M181.67 41.25 C182.43 49.64, 175.2 56.21, 167.92 55 M181.67 41.25 C181.3 48.44, 176.53 54.47, 167.92 55 M167.92 55 C133.89 55.98, 103.1 55.82, 13.75 55 M167.92 55 C129.18 56.1, 92.38 55.53, 13.75 55 M13.75 55 C2.6 53.48, 1.53 51.36, 0 41.25 M13.75 55 C6 55.95, 0.21 51.03, 0 41.25 M0 41.25 C0.35 33.06, -0.66 24.63, 0 13.75 M0 41.25 C0.39 31.11, 0.21 20.86, 0 13.75 M0 13.75 C0.62 6.25, 2.86 -0.85, 13.75 0 M0 13.75 C-0.46 4.95, 5.44 -1.41, 13.75 0" stroke="#1e1e1e" stroke-width="4" fill="none"></path></g><g stroke-opacity="0.7" fill-opacity="0.7" transform="translate(115.30811543290474 209.99999999999977) rotate(0 56.430023193359375 22.5)"><text x="56.430023193359375" y="0" font-family="Virgil, Segoe UI Emoji" font-size="36px" fill="#1e1e1e" text-anchor="middle" style="white-space: pre;" direction="ltr" dominant-baseline="text-before-edge">include</text></g><g stroke-linecap="round"><g stroke-opacity="0.7" fill-opacity="0.7" transform="translate(14.238138626264117 228.33333333333326) rotate(0 25.833436046124916 42.634459641496505)"><path d="M-0.24 -0.94 C0.84 12.89, -1.87 67.73, 6.94 82.17 C15.74 96.62, 45.14 85.21, 52.58 85.71 M-1.82 1.18 C-0.88 14.7, -2.62 66.43, 6.4 80.17 C15.42 93.91, 44.74 82.59, 52.3 83.6" stroke="#1e1e1e" stroke-width="4" fill="none"></path></g><g stroke-opacity="0.7" fill-opacity="0.7" transform="translate(14.238138626264117 228.33333333333326) rotate(0 25.833436046124916 42.634459641496505)"><path d="M31.96 93.95 C37.4 91.77, 46.28 88.46, 52.3 83.6 M31.96 93.95 C39.15 90.13, 44.74 86.5, 52.3 83.6" stroke="#1e1e1e" stroke-width="4" fill="none"></path></g><g stroke-opacity="0.7" fill-opacity="0.7" transform="translate(14.238138626264117 228.33333333333326) rotate(0 25.833436046124916 42.634459641496505)"><path d="M30.07 78.45 C36.04 81.56, 45.57 83.53, 52.3 83.6 M30.07 78.45 C37.88 79.85, 44.11 81.44, 52.3 83.6" stroke="#1e1e1e" stroke-width="4" fill="none"></path></g></g><mask></mask><g stroke-opacity="0.7" fill-opacity="0.7" stroke-linecap="round" transform="translate(80.904805292932 281.6666666666665) rotate(0 91.66666666666606 27.5)"><path d="M13.75 0 C60.45 -0.83, 106.64 -0.1, 169.58 0 M13.75 0 C60.13 -0.36, 105.83 -0.3, 169.58 0 M169.58 0 C179.26 -0.34, 182.22 4.39, 183.33 13.75 M169.58 0 C177.27 1.34, 182.12 5.69, 183.33 13.75 M183.33 13.75 C181.54 18.7, 182.74 29.04, 183.33 41.25 M183.33 13.75 C183.77 23.37, 182.57 32.84, 183.33 41.25 M183.33 41.25 C181.71 49.61, 180.61 53.03, 169.58 55 M183.33 41.25 C182.07 49.78, 179.23 56.62, 169.58 55 M169.58 55 C126.59 54.28, 87.11 55.43, 13.75 55 M169.58 55 C135.05 55.4, 98.93 56.32, 13.75 55 M13.75 55 C3.35 55.76, 1.99 50.16, 0 41.25 M13.75 55 C4.24 54.31, 0.76 48.77, 0 41.25 M0 41.25 C0.36 32.92, 1.25 21.4, 0 13.75 M0 41.25 C-0.44 32.9, -0.07 23.54, 0 13.75 M0 13.75 C0.98 6.44, 3.27 1.49, 13.75 0 M0 13.75 C1.46 2.32, 5.92 -0.8, 13.75 0" stroke="#1e1e1e" stroke-width="4" fill="none"></path></g><g stroke-opacity="0.7" fill-opacity="0.7" transform="translate(122.85545328284206 286.6666666666665) rotate(0 49.71601867675781 22.5)"><text x="49.71601867675781" y="0" font-family="Virgil, Segoe UI Emoji" font-size="36px" fill="#1e1e1e" text-anchor="middle" style="white-space: pre;" direction="ltr" dominant-baseline="text-before-edge">main.c</text></g><g stroke-linecap="round"><g stroke-opacity="0.7" fill-opacity="0.7" transform="translate(252.57147195959988 143.33333333333326) rotate(0 44.16666666666606 -1.6666666666667425)"><path d="M0.72 -0.42 C15.43 -1.11, 74.64 -3.37, 89.28 -4.03 M-0.36 -1.68 C14.18 -2.25, 74.11 -2.54, 88.83 -2.85" stroke="#1e1e1e" stroke-width="4" fill="none"></path></g></g><mask></mask><g stroke-linecap="round"><g stroke-opacity="0.7" fill-opacity="0.7" transform="translate(262.5714719595999 246.66666666666674) rotate(0 40.83333333333212 -1.6666666666667425)"><path d="M-0.5 -0.34 C13.39 -0.68, 68.71 -2.18, 82.48 -2.54 M1.43 -1.57 C15.32 -2.2, 68.6 -3.78, 81.96 -4.25" stroke="#1e1e1e" stroke-width="4" fill="none"></path></g></g><mask></mask><g stroke-linecap="round"><g stroke-opacity="0.7" fill-opacity="0.7" transform="translate(344.2381386262641 139.99999999999977) rotate(0 38.33333333333394 -53.33333333333326)"><path d="M0.6 -0.03 C0.43 -15.92, -12.53 -76.43, 0 -94.25 C12.53 -112.07, 62.83 -105.01, 75.78 -106.93 M-0.54 -1.09 C-0.97 -16.8, -14.08 -78.54, -0.95 -95.98 C12.17 -113.43, 65.58 -103.77, 78.21 -105.76" stroke="#1e1e1e" stroke-width="4" fill="none"></path></g><g stroke-opacity="0.7" fill-opacity="0.7" transform="translate(344.2381386262641 139.99999999999977) rotate(0 38.33333333333394 -53.33333333333326)"><path d="M54.59 -97.57 C63.61 -100.86, 74.05 -105.5, 78.21 -105.76 M54.59 -97.57 C61.61 -100.31, 67.09 -101.9, 78.21 -105.76" stroke="#1e1e1e" stroke-width="4" fill="none"></path></g><g stroke-opacity="0.7" fill-opacity="0.7" transform="translate(344.2381386262641 139.99999999999977) rotate(0 38.33333333333394 -53.33333333333326)"><path d="M54.85 -114.67 C63.93 -111.34, 74.26 -109.36, 78.21 -105.76 M54.85 -114.67 C61.95 -112.66, 67.36 -109.5, 78.21 -105.76" stroke="#1e1e1e" stroke-width="4" fill="none"></path></g></g><mask></mask><g stroke-linecap="round"><g stroke-opacity="0.7" fill-opacity="0.7" transform="translate(344.23813862626776 96.66666666666629) rotate(0 37.8591568126194 1.4084002453375888)"><path d="M0.94 -0.98 C13.42 -0.3, 63.34 2.94, 75.98 3.42 M-0.03 1.13 C12.22 1.51, 62.41 1.34, 75.17 1.61" stroke="#1e1e1e" stroke-width="4" fill="none"></path></g><g stroke-opacity="0.7" fill-opacity="0.7" transform="translate(344.23813862626776 96.66666666666629) rotate(0 37.8591568126194 1.4084002453375888)"><path d="M51.61 9.98 C59.27 6.95, 71.14 4.95, 75.17 1.61 M51.61 9.98 C56.75 8.84, 62.51 5.88, 75.17 1.61" stroke="#1e1e1e" stroke-width="4" fill="none"></path></g><g stroke-opacity="0.7" fill-opacity="0.7" transform="translate(344.23813862626776 96.66666666666629) rotate(0 37.8591568126194 1.4084002453375888)"><path d="M51.74 -7.12 C59.26 -3.44, 71.08 1.27, 75.17 1.61 M51.74 -7.12 C56.82 -4.43, 62.54 -3.57, 75.17 1.61" stroke="#1e1e1e" stroke-width="4" fill="none"></path></g></g><mask></mask><g stroke-linecap="round"><g stroke-opacity="0.7" fill-opacity="0.7" transform="translate(345.90480529292836 143.33333333333326) rotate(0 41.297087632428884 15.442734386972461)"><path d="M1.06 0.06 C1.84 4.32, -8.29 19.83, 5.13 24.86 C18.55 29.89, 68.73 29.39, 81.57 30.25 M0.15 -0.95 C0.76 3.56, -9.71 20.96, 4.25 26.33 C18.21 31.69, 70.93 30.51, 83.93 31.24" stroke="#1e1e1e" stroke-width="4" fill="none"></path></g><g stroke-opacity="0.7" fill-opacity="0.7" transform="translate(345.90480529292836 143.33333333333326) rotate(0 41.297087632428884 15.442734386972461)"><path d="M60.28 39.36 C68.34 36.65, 75.92 32.01, 83.93 31.24 M60.28 39.36 C66.58 37.71, 71.88 35.31, 83.93 31.24" stroke="#1e1e1e" stroke-width="4" fill="none"></path></g><g stroke-opacity="0.7" fill-opacity="0.7" transform="translate(345.90480529292836 143.33333333333326) rotate(0 41.297087632428884 15.442734386972461)"><path d="M60.59 22.26 C68.45 25.28, 75.92 26.36, 83.93 31.24 M60.59 22.26 C66.76 24.84, 71.98 26.67, 83.93 31.24" stroke="#1e1e1e" stroke-width="4" fill="none"></path></g></g><mask></mask><g stroke-opacity="0.7" fill-opacity="0.7" stroke-linecap="round" transform="translate(430.904805292932 10) rotate(0 86.66666666666788 22.5)"><path d="M11.25 0 C69.85 -0.22, 127.69 1.98, 162.08 0 M11.25 0 C55.64 -0.19, 100.31 -2.09, 162.08 0 M162.08 0 C169.45 0.91, 172.48 3.91, 173.33 11.25 M162.08 0 C168.32 1.09, 175.1 4.86, 173.33 11.25 M173.33 11.25 C174.3 18.62, 171.97 25.51, 173.33 33.75 M173.33 11.25 C172.88 18.31, 173.69 26.35, 173.33 33.75 M173.33 33.75 C173.44 41.78, 170.35 45.54, 162.08 45 M173.33 33.75 C172.73 40.23, 169.61 46.03, 162.08 45 M162.08 45 C131.12 44.66, 101.1 42.47, 11.25 45 M162.08 45 C122.46 45.44, 84.49 46.4, 11.25 45 M11.25 45 C3.35 44.78, -0.03 39.4, 0 33.75 M11.25 45 C3.31 47.23, -0.24 41.93, 0 33.75 M0 33.75 C0.19 29.15, -1.44 23.14, 0 11.25 M0 33.75 C-0.27 26.58, 0.52 19.42, 0 11.25 M0 11.25 C-0.06 5.35, 4.84 -0.95, 11.25 0 M0 11.25 C-0.33 2.83, 2.25 -2.06, 11.25 0" stroke="#1e1e1e" stroke-width="4" fill="none"></path></g><g stroke-opacity="0.7" fill-opacity="0.7" transform="translate(439.59114816809597 15) rotate(0 77.9803237915039 17.5)"><text x="77.9803237915039" y="0" font-family="Virgil, Segoe UI Emoji" font-size="28px" fill="#1e1e1e" text-anchor="middle" style="white-space: pre;" direction="ltr" dominant-baseline="text-before-edge">something1.c</text></g><g stroke-opacity="0.7" fill-opacity="0.7" stroke-linecap="round" transform="translate(430.90480529292836 74.99999999999955) rotate(0 90.00000000000364 22.5)"><path d="M11.25 0 C54.99 0.43, 97.18 0.41, 168.75 0 M11.25 0 C57.56 -0.13, 102.6 0.31, 168.75 0 M168.75 0 C175.4 -1.99, 181.35 4.1, 180 11.25 M168.75 0 C174.92 -1.99, 179.93 4.43, 180 11.25 M180 11.25 C179.64 15.5, 179.59 21.63, 180 33.75 M180 11.25 C179.39 18.96, 179.82 25.94, 180 33.75 M180 33.75 C181.43 39.34, 176.71 44.38, 168.75 45 M180 33.75 C179.46 42.75, 175.4 43.92, 168.75 45 M168.75 45 C125.09 45.11, 82.3 44.86, 11.25 45 M168.75 45 C126.55 43.9, 84.89 44.09, 11.25 45 M11.25 45 C2.71 43.56, 0.85 39.56, 0 33.75 M11.25 45 C4.26 43.13, 0.65 41.74, 0 33.75 M0 33.75 C-1.15 26.65, -0.08 17.16, 0 11.25 M0 33.75 C0.16 28.03, -0.83 23.51, 0 11.25 M0 11.25 C-0.99 2.51, 2.99 0.17, 11.25 0 M0 11.25 C0.47 5.57, 5.39 -0.84, 11.25 0" stroke="#1e1e1e" stroke-width="4" fill="none"></path></g><g stroke-opacity="0.7" fill-opacity="0.7" transform="translate(436.7504550121703 79.99999999999955) rotate(0 84.15435028076172 17.5)"><text x="84.15435028076172" y="0" font-family="Virgil, Segoe UI Emoji" font-size="28px" fill="#1e1e1e" text-anchor="middle" style="white-space: pre;" direction="ltr" dominant-baseline="text-before-edge">something2.c</text></g><g stroke-opacity="0.7" fill-opacity="0.7" stroke-linecap="round" transform="translate(432.57147195959624 138.33333333333303) rotate(0 93.33333333333394 22.5)"><path d="M11.25 0 C49.13 -0.24, 86.69 1.82, 175.42 0 M11.25 0 C66.39 1.72, 122.56 0.79, 175.42 0 M175.42 0 C181.39 -0.19, 186.46 4.02, 186.67 11.25 M175.42 0 C181.34 -1.96, 186.27 2.61, 186.67 11.25 M186.67 11.25 C186.99 18.18, 188.01 21.23, 186.67 33.75 M186.67 11.25 C186.96 18.03, 186.46 23.03, 186.67 33.75 M186.67 33.75 C186.79 40.45, 183.76 46, 175.42 45 M186.67 33.75 C187.73 43.21, 180.94 44.42, 175.42 45 M175.42 45 C137.87 46.32, 101.65 44.55, 11.25 45 M175.42 45 C135.27 45.23, 97.55 46.25, 11.25 45 M11.25 45 C4.45 45.15, -0.91 42.42, 0 33.75 M11.25 45 C4.82 44.55, 1.73 41.95, 0 33.75 M0 33.75 C-1.45 25.49, 0.15 19.09, 0 11.25 M0 33.75 C-0.61 28.11, 0.45 21.4, 0 11.25 M0 11.25 C1.29 1.96, 2.94 0.54, 11.25 0 M0 11.25 C0.3 4.49, 5.2 0.55, 11.25 0" stroke="#1e1e1e" stroke-width="4" fill="none"></path></g><g stroke-opacity="0.7" fill-opacity="0.7" transform="translate(442.1844531200768 143.33333333333303) rotate(0 83.72035217285156 17.5)"><text x="83.72035217285156" y="0" font-family="Virgil, Segoe UI Emoji" font-size="28px" fill="#1e1e1e" text-anchor="middle" style="white-space: pre;" direction="ltr" dominant-baseline="text-before-edge">something3.c</text></g><g stroke-linecap="round"><g stroke-opacity="0.7" fill-opacity="0.7" transform="translate(351.79191805985465 320.83333333333326) rotate(0 38.33333333333394 -53.33333333333326)"><path d="M-0.47 -1.08 C-0.65 -16.64, -13.04 -76.6, -0.1 -94.36 C12.84 -112.12, 64.29 -105.51, 77.15 -107.64 M1.48 0.96 C1.06 -14.85, -13.63 -78.17, -1.1 -96.14 C11.43 -114.11, 63.53 -105.15, 76.64 -106.84" stroke="#1e1e1e" stroke-width="4" fill="none"></path></g><g stroke-opacity="0.7" fill-opacity="0.7" transform="translate(351.79191805985465 320.83333333333326) rotate(0 38.33333333333394 -53.33333333333326)"><path d="M53.01 -98.68 C60.25 -101.85, 72.1 -103.98, 76.64 -106.84 M53.01 -98.68 C58.38 -100.67, 63.53 -103.1, 76.64 -106.84" stroke="#1e1e1e" stroke-width="4" fill="none"></path></g><g stroke-opacity="0.7" fill-opacity="0.7" transform="translate(351.79191805985465 320.83333333333326) rotate(0 38.33333333333394 -53.33333333333326)"><path d="M53.29 -115.78 C60.28 -112.46, 72.03 -108.09, 76.64 -106.84 M53.29 -115.78 C58.66 -114.03, 63.76 -112.72, 76.64 -106.84" stroke="#1e1e1e" stroke-width="4" fill="none"></path></g></g><mask></mask><g stroke-linecap="round"><g stroke-opacity="0.7" fill-opacity="0.7" transform="translate(351.7919180598619 277.4999999999998) rotate(0 37.8591568126194 1.0098680603882713)"><path d="M-0.1 0.64 C12.68 1, 63.49 0.89, 76.2 1.04 M-1.61 -0.06 C11.09 0.51, 62.64 1.62, 75.51 2.07" stroke="#1e1e1e" stroke-width="4" fill="none"></path></g><g stroke-opacity="0.7" fill-opacity="0.7" transform="translate(351.7919180598619 277.4999999999998) rotate(0 37.8591568126194 1.0098680603882713)"><path d="M51.79 9.97 C59.12 8.73, 62.61 6.58, 75.51 2.07 M51.79 9.97 C58.21 7.03, 65.01 5.35, 75.51 2.07" stroke="#1e1e1e" stroke-width="4" fill="none"></path></g><g stroke-opacity="0.7" fill-opacity="0.7" transform="translate(351.7919180598619 277.4999999999998) rotate(0 37.8591568126194 1.0098680603882713)"><path d="M52.26 -7.13 C59.32 -3.9, 62.68 -1.6, 75.51 2.07 M52.26 -7.13 C58.6 -5.59, 65.28 -2.78, 75.51 2.07" stroke="#1e1e1e" stroke-width="4" fill="none"></path></g></g><mask></mask><g stroke-linecap="round"><g stroke-opacity="0.7" fill-opacity="0.7" transform="translate(353.45858472652617 324.16666666666674) rotate(0 41.297087632428884 15.456134977266629)"><path d="M0.48 -0.98 C1.4 3.01, -8.3 19.29, 5.43 24.55 C19.16 29.8, 69.97 29.69, 82.87 30.56 M-0.72 1.13 C0.09 5.22, -9.13 20.75, 4.7 25.84 C18.53 30.94, 69.16 30.96, 82.25 31.7" stroke="#1e1e1e" stroke-width="4" fill="none"></path></g><g stroke-opacity="0.7" fill-opacity="0.7" transform="translate(353.45858472652617 324.16666666666674) rotate(0 41.297087632428884 15.456134977266629)"><path d="M58.5 39.5 C63.76 37.84, 71.56 35.32, 82.25 31.7 M58.5 39.5 C65.73 37.07, 70.69 34.79, 82.25 31.7" stroke="#1e1e1e" stroke-width="4" fill="none"></path></g><g stroke-opacity="0.7" fill-opacity="0.7" transform="translate(353.45858472652617 324.16666666666674) rotate(0 41.297087632428884 15.456134977266629)"><path d="M59.04 22.41 C64.23 25.74, 71.87 28.2, 82.25 31.7 M59.04 22.41 C66.16 24.6, 70.98 26.96, 82.25 31.7" stroke="#1e1e1e" stroke-width="4" fill="none"></path></g></g><mask></mask><g stroke-opacity="0.7" fill-opacity="0.7" stroke-linecap="round" transform="translate(438.45858472652617 190.83333333333326) rotate(0 86.66666666666788 22.5)"><path d="M11.25 0 C61.82 -0.07, 113.33 -0.1, 162.08 0 M11.25 0 C41.69 0.11, 74.02 0.82, 162.08 0 M162.08 0 C168.07 1.06, 174.65 3.17, 173.33 11.25 M162.08 0 C167.76 1.76, 175.54 3.07, 173.33 11.25 M173.33 11.25 C173.1 20.38, 171.54 24.23, 173.33 33.75 M173.33 11.25 C173.9 16.3, 172.33 20.3, 173.33 33.75 M173.33 33.75 C174.98 42.57, 170.33 43.96, 162.08 45 M173.33 33.75 C171.92 42.39, 168.28 43.57, 162.08 45 M162.08 45 C109.77 42.28, 55.63 43.48, 11.25 45 M162.08 45 C118.13 46.34, 72.8 46.39, 11.25 45 M11.25 45 C4.86 46.53, -1.99 41.68, 0 33.75 M11.25 45 C3.77 43.04, 1.55 40.88, 0 33.75 M0 33.75 C0.78 26, 1.58 15.79, 0 11.25 M0 33.75 C-0.41 24.66, -0.9 15.86, 0 11.25 M0 11.25 C0.72 3.34, 4.06 -1.79, 11.25 0 M0 11.25 C-2.28 4.84, 2.98 -0.68, 11.25 0" stroke="#1e1e1e" stroke-width="4" fill="none"></path></g><g stroke-opacity="0.7" fill-opacity="0.7" transform="translate(447.2569271134089 195.83333333333326) rotate(0 77.86832427978516 17.5)"><text x="77.86832427978516" y="0" font-family="Virgil, Segoe UI Emoji" font-size="28px" fill="#1e1e1e" text-anchor="middle" style="white-space: pre;" direction="ltr" dominant-baseline="text-before-edge">something1.h</text></g><g stroke-opacity="0.7" fill-opacity="0.7" stroke-linecap="round" transform="translate(438.45858472652617 254.16666666666652) rotate(0 89.16666666666788 22.5)"><path d="M11.25 0 C62.96 0.08, 113.95 1.25, 167.08 0 M11.25 0 C50.13 1.11, 87.13 1.63, 167.08 0 M167.08 0 C175.9 -0.58, 176.75 5.28, 178.33 11.25 M167.08 0 C176.79 -0.68, 178.82 3.24, 178.33 11.25 M178.33 11.25 C176.57 16.66, 176.35 24.71, 178.33 33.75 M178.33 11.25 C177.5 18.3, 179.29 26.08, 178.33 33.75 M178.33 33.75 C179.08 40.21, 173.36 45.99, 167.08 45 M178.33 33.75 C177.03 39.82, 175.7 44.65, 167.08 45 M167.08 45 C126.64 42.69, 88.81 44.65, 11.25 45 M167.08 45 C115.33 47.33, 64.98 47.15, 11.25 45 M11.25 45 C1.76 45.43, 0.01 39.55, 0 33.75 M11.25 45 C5.3 44.63, 1.67 39.91, 0 33.75 M0 33.75 C1.38 27.91, 1.86 24.66, 0 11.25 M0 33.75 C-0.79 26.96, 0.45 20.03, 0 11.25 M0 11.25 C0.31 1.96, 1.77 0.95, 11.25 0 M0 11.25 C-0.77 3.07, 2.94 0.66, 11.25 0" stroke="#1e1e1e" stroke-width="4" fill="none"></path></g><g stroke-opacity="0.7" fill-opacity="0.7" transform="translate(443.5829006241511 259.1666666666665) rotate(0 84.04235076904297 17.5)"><text x="84.04235076904297" y="0" font-family="Virgil, Segoe UI Emoji" font-size="28px" fill="#1e1e1e" text-anchor="middle" style="white-space: pre;" direction="ltr" dominant-baseline="text-before-edge">something2.h</text></g><g stroke-opacity="0.7" fill-opacity="0.7" stroke-linecap="round" transform="translate(440.1252513931904 319.1666666666663) rotate(0 91.66666666666788 22.5)"><path d="M11.25 0 C61.34 1.26, 114.09 -1.68, 172.08 0 M11.25 0 C47.38 0.52, 85.68 -0.3, 172.08 0 M172.08 0 C178 1.53, 185.25 3.16, 183.33 11.25 M172.08 0 C180.07 -0.51, 183.47 3.54, 183.33 11.25 M183.33 11.25 C181.17 19.84, 183.44 30.24, 183.33 33.75 M183.33 11.25 C183.94 19.82, 183.49 26.55, 183.33 33.75 M183.33 33.75 C182.11 42.24, 178.45 43.75, 172.08 45 M183.33 33.75 C184.45 40.9, 178.45 45.27, 172.08 45 M172.08 45 C139.61 45.57, 107.93 45.34, 11.25 45 M172.08 45 C110.04 47.28, 45.9 46.73, 11.25 45 M11.25 45 C3.76 43.3, 1.34 40.93, 0 33.75 M11.25 45 C5.42 43.66, -2.15 42, 0 33.75 M0 33.75 C1.77 26.49, -0.16 18.06, 0 11.25 M0 33.75 C0.56 27.16, 0.35 20.08, 0 11.25 M0 11.25 C-1.98 4.7, 3.08 -0.59, 11.25 0 M0 11.25 C-0.81 4.41, 3.42 -0.42, 11.25 0" stroke="#1e1e1e" stroke-width="4" fill="none"></path></g><g stroke-opacity="0.7" fill-opacity="0.7" transform="translate(448.1835653987255 324.1666666666663) rotate(0 83.60835266113281 17.5)"><text x="83.60835266113281" y="0" font-family="Virgil, Segoe UI Emoji" font-size="28px" fill="#1e1e1e" text-anchor="middle" style="white-space: pre;" direction="ltr" dominant-baseline="text-before-edge">something3.h</text></g></svg>